<svg id="Layer_1" enable-background="new 0 0 512 512" height="512" viewBox="0 0 512 512" width="512" xmlns="http://www.w3.org/2000/svg"><g><path d="m256.016 0c-105.722 0-191.733 86.011-191.733 191.733v305.267h383.467v-305.267c0-105.722-86.012-191.733-191.734-191.733z" fill="#82503c"/><path d="m447.75 497v-305.267c0-105.722-86.012-191.733-191.734-191.733v497z" fill="#50321e"/><path d="m400.616 287.066h-32.133c-8.284 0-15-6.716-15-15v-64.266c0-8.284 6.716-15 15-15h32.133c25.989 0 47.133 21.144 47.133 47.133s-21.144 47.133-47.133 47.133z" fill="#c36e64"/><path d="m143.549 287.066h-32.133c-25.989 0-47.133-21.144-47.133-47.133s21.144-47.133 47.133-47.133h32.133c8.284 0 15 6.716 15 15v64.267c0 8.284-6.716 14.999-15 14.999z" fill="#e19682"/><path d="m361.775 317.617-64.267-32.133c-25.981-12.994-57.002-12.994-82.983-.001l-64.268 32.134c-4.649 2.325-10.172 2.077-14.594-.657-4.422-2.733-7.114-7.561-7.114-12.76v-112.483c0-70.381 56.945-127.451 127.451-127.451 8.284 0 15.016 6.716 15.016 15v16.067c0 18.306 14.894 33.2 33.2 33.2 43.689 0 79.267 35.528 79.267 79.25v96.417c0 5.199-2.692 10.027-7.114 12.76-4.427 2.736-9.949 2.979-14.594.657z" fill="#ffbea0"/><path d="m383.483 304.2v-96.417c0-43.723-35.578-79.25-79.267-79.25-18.307 0-33.2-14.894-33.2-33.2v-16.066c0-8.284-6.731-14.999-15.015-15v211.471c14.255-.002 28.512 3.246 41.507 9.745l64.267 32.133c4.645 2.322 10.167 2.079 14.594-.657 4.422-2.732 7.114-7.56 7.114-12.759z" fill="#e19682"/><circle clip-rule="evenodd" cx="207.816" cy="207.8" fill="#283741" fill-rule="evenodd" r="15"/><circle clip-rule="evenodd" cx="304.216" cy="207.8" fill="#0a141e" fill-rule="evenodd" r="15"/><path d="m439.458 483.58-128.533-64.267c-4.65-2.325-10.171-2.077-14.594.657-4.422 2.733-7.114 7.561-7.114 12.76 0 18.306-14.894 33.2-33.216 33.2s-33.216-14.894-33.216-33.2c0-5.199-2.692-10.027-7.114-12.76-4.422-2.734-9.944-2.982-14.594-.657l-128.535 64.267c-7.41 3.705-10.413 12.715-6.708 20.125 2.628 5.256 7.926 8.295 13.428 8.295h353.476c5.502 0 10.8-3.039 13.428-8.295 3.705-7.41.701-16.42-6.708-20.125z" fill="#e1ff5a"/><path d="m446.166 503.705c3.705-7.41.701-16.419-6.708-20.125l-128.533-64.267c-4.65-2.325-10.171-2.077-14.594.657-4.422 2.733-7.114 7.561-7.114 12.76 0 18.306-14.894 33.2-33.216 33.2v46.07h176.738c5.501 0 10.799-3.039 13.427-8.295z" fill="#71d046"/><path d="m304.244 353.467h-96.433c-8.284 0-15 6.716-15 15v64.266c0 34.909 28.306 63.191 63.216 63.185 34.91.006 63.216-28.276 63.216-63.185v-64.266c.001-8.284-6.715-15-14.999-15z" fill="#e19682"/><path d="m319.216 432.733v-64.266c0-8.284-6.716-15-15-15h-48.216v142.451c34.91.006 63.216-28.276 63.216-63.185z" fill="#c36e64"/><path d="m256.018 410.846c-18.861 0-37.715-4.297-54.908-12.893l-21.159-10.579c-31.706-15.856-51.4-47.725-51.4-83.171 0-5.682 3.21-10.875 8.292-13.417l64.267-32.134c34.382-17.191 75.435-17.191 109.817-.001l64.267 32.134c5.082 2.541 8.292 7.735 8.292 13.417 0 35.446-19.694 67.315-51.397 83.17l-21.161 10.58c-17.191 8.595-36.054 12.894-54.91 12.894z" fill="#f0f5fa"/><path d="m310.926 397.953 21.161-10.58c31.703-15.855 51.397-47.724 51.397-83.17 0-5.682-3.21-10.875-8.292-13.417l-64.267-32.134c-17.196-8.597-36.06-12.895-54.924-12.892v165.086h.016c18.857 0 37.72-4.299 54.909-12.893z" fill="#dfe3e9"/></g></svg>